<svg xmlns="http://www.w3.org/2000/svg" viewBox="0 0 512 512">
  <defs>
    <linearGradient id="iron" x1="0%" y1="0%" x2="100%" y2="100%">
      <stop offset="0%" stop-color="#4a4a4a"/>
      <stop offset="100%" stop-color="#1a1a1a"/>
    </linearGradient>
    
    <radialGradient id="bloodRed" cx="50%" cy="60%" r="50%">
      <stop offset="0%" stop-color="#9a0a0a"/>
      <stop offset="70%" stop-color="#5a0505"/>
      <stop offset="100%" stop-color="#2a0000"/>
    </radialGradient>
  </defs>

  <circle cx="256" cy="256" r="240" fill="url(#iron)"/>
  
  <circle cx="256" cy="256" r="205" fill="#111111" stroke="#0a0a0a" stroke-width="8"/>

  <path d="M 256,80 C 256,80 120,270 120,340 A 136,136 0 0,0 392,340 C 392,270 256,80 256,80 Z" fill="url(#bloodRed)"/>

  <circle cx="160" cy="420" r="14" fill="#5a0505"/>
  <path d="M 160,390 L 153,420 L 167,420 Z" fill="#5a0505"/>

  <circle cx="370" cy="405" r="9" fill="#3a0202"/>
  <path d="M 370,385 L 365,405 L 375,405 Z" fill="#3a0202"/>

  <circle cx="256" cy="75" r="14" fill="#0a0a0a"/>
  <circle cx="256" cy="437" r="14" fill="#0a0a0a"/>
  <circle cx="75" cy="256" r="14" fill="#0a0a0a"/>
  <circle cx="437" cy="256" r="14" fill="#0a0a0a"/>

  <text x="256" y="345" font-family="'Book Antiqua', 'Palatino Linotype', Georgia, serif" font-weight="bold" font-size="140" fill="#dcd3c1" text-anchor="middle">DMG</text>
  
  <text x="256" y="340" font-family="'Book Antiqua', 'Palatino Linotype', Georgia, serif" font-weight="bold" font-size="140" fill="none" stroke="#111" stroke-width="3" text-anchor="middle" opacity="0.6">DMG</text>
</svg>
