<svg xmlns="http://www.w3.org/2000/svg" viewBox="0 0 512 512">
  <defs>
    <linearGradient id="iron" x1="0%" y1="0%" x2="100%" y2="100%">
      <stop offset="0%" stop-color="#4a4a4a"/>
      <stop offset="100%" stop-color="#1a1a1a"/>
    </linearGradient>
    
    <radialGradient id="bloodRed" cx="50%" cy="50%" r="50%">
      <stop offset="0%" stop-color="#5a1212"/>
      <stop offset="100%" stop-color="#2a0505"/>
    </radialGradient>
  </defs>

  <circle cx="256" cy="256" r="240" fill="url(#iron)"/>
  
  <circle cx="256" cy="256" r="205" fill="url(#bloodRed)" stroke="#0a0a0a" stroke-width="8"/>

  <g fill="#dcd3c1" opacity="0.8">
    <path d="M 210,140 C 180,140 170,170 190,180 L 240,230 L 260,210 L 210,160 C 230,150 240,140 210,140 Z" />
    <path d="M 310,360 C 340,360 350,330 330,320 L 260,250 L 240,270 L 290,320 C 270,330 260,340 310,360 Z" />
  </g>

  <circle cx="256" cy="75" r="14" fill="#0a0a0a"/>
  <circle cx="256" cy="437" r="14" fill="#0a0a0a"/>
  <circle cx="75" cy="256" r="14" fill="#0a0a0a"/>
  <circle cx="437" cy="256" r="14" fill="#0a0a0a"/>

  <text x="256" y="285" font-family="'Book Antiqua', 'Palatino Linotype', Georgia, serif" font-weight="bold" font-size="110" fill="#dcd3c1" text-anchor="middle">FALL</text>
  
  <text x="256" y="282" font-family="'Book Antiqua', 'Palatino Linotype', Georgia, serif" font-weight="bold" font-size="110" fill="none" stroke="#111" stroke-width="3" text-anchor="middle" opacity="0.6">FALL</text>
</svg>
