<svg xmlns="http://www.w3.org/2000/svg" viewBox="0 0 512 512">
  <defs>
    <linearGradient id="iron" x1="0%" y1="0%" x2="100%" y2="100%">
      <stop offset="0%" stop-color="#4a4a4a"/>
      <stop offset="100%" stop-color="#1a1a1a"/>
    </linearGradient>
    
    <radialGradient id="bloodRed" cx="50%" cy="50%" r="50%">
      <stop offset="0%" stop-color="#5a1212"/>
      <stop offset="100%" stop-color="#2a0505"/>
    </radialGradient>

    <linearGradient id="sandGold" x1="0%" y1="0%" x2="0%" y2="100%">
      <stop offset="0%" stop-color="#c29d38"/>
      <stop offset="50%" stop-color="#8e6d1a"/>
      <stop offset="100%" stop-color="#5a4205"/>
    </linearGradient>
  </defs>

  <circle cx="256" cy="256" r="240" fill="url(#iron)"/>
  
  <circle cx="256" cy="256" r="205" fill="url(#bloodRed)" stroke="#0a0a0a" stroke-width="8"/>

  <g fill="url(#sandGold)" opacity="0.8">
    <path d="M 180,140 L 332,140 L 332,165 L 256,256 L 332,347 L 332,372 L 180,372 L 180,347 L 256,256 L 180,165 Z" stroke="#111" stroke-width="2"/>
    <rect x="170" y="130" width="172" height="15" rx="4" fill="#1a1a1a"/>
    <rect x="170" y="367" width="172" height="15" rx="4" fill="#1a1a1a"/>
  </g>

  <circle cx="256" cy="75" r="14" fill="#0a0a0a"/>
  <circle cx="256" cy="437" r="14" fill="#0a0a0a"/>
  <circle cx="75" cy="256" r="14" fill="#0a0a0a"/>
  <circle cx="437" cy="256" r="14" fill="#0a0a0a"/>

  <text x="256" y="300" font-family="'Book Antiqua', 'Palatino Linotype', Georgia, serif" font-weight="bold" font-size="82" fill="#dcd3c1" text-anchor="middle">Timer</text>
  
  <text x="256" y="297" font-family="'Book Antiqua', 'Palatino Linotype', Georgia, serif" font-weight="bold" font-size="82" fill="none" stroke="#111" stroke-width="3" text-anchor="middle" opacity="0.6">Timer</text>
</svg>
