<svg xmlns="http://www.w3.org/2000/svg" viewBox="0 0 512 512">
  <defs>
    <linearGradient id="iron_coin" x1="0%" y1="0%" x2="100%" y2="100%">
      <stop offset="0%" stop-color="#4a4a4a"/>
      <stop offset="100%" stop-color="#1a1a1a"/>
    </linearGradient>
    
    <radialGradient id="bloodRed_coin" cx="50%" cy="50%" r="50%">
      <stop offset="0%" stop-color="#5a1212"/>
      <stop offset="100%" stop-color="#2a0505"/>
    </radialGradient>
    
    <linearGradient id="brass_coin" x1="0%" y1="0%" x2="0%" y2="100%">
      <stop offset="0%" stop-color="#a68132"/>
      <stop offset="100%" stop-color="#6e5020"/>
    </linearGradient>
  </defs>

  <circle cx="256" cy="256" r="240" fill="url(#iron_coin)"/>
  
  <circle cx="256" cy="256" r="205" fill="url(#bloodRed_coin)" stroke="#0a0a0a" stroke-width="8"/>

  <circle cx="256" cy="75" r="14" fill="#0a0a0a"/>
  <circle cx="256" cy="437" r="14" fill="#0a0a0a"/>
  <circle cx="75" cy="256" r="14" fill="#0a0a0a"/>
  <circle cx="437" cy="256" r="14" fill="#0a0a0a"/>

  <g fill="none" stroke="url(#brass_coin)" stroke-width="6" opacity="0.9">
    <path d="M 216,136 A 40,40 0 0,0 296,136 M 256,136 L 256,336 M 136,336 L 376,336 M 256,136 L 256,106"/>
    <path d="M 176,336 L 176,306 L 216,306 L 216,336"/>
    <path d="M 296,336 L 296,306 L 336,306 L 336,336"/>
    <path d="M 196,336 L 196,286 L 236,286 L 236,336"/>
    <path d="M 276,336 L 276,286 L 316,286 L 316,336"/>
  </g>

  <text x="256" y="196" font-family="'Book Antiqua', 'Palatino Linotype', Georgia, serif" font-weight="bold" font-size="60" fill="url(#brass_coin)" text-anchor="middle">COINS</text>
  <text x="256" y="246" font-family="'Book Antiqua', 'Palatino Linotype', Georgia, serif" font-weight="bold" font-size="30" fill="url(#brass_coin)" text-anchor="middle">PAY &amp; CREDIT</text>

  <text x="256" y="194" font-family="'Book Antiqua', 'Palatino Linotype', Georgia, serif" font-weight="bold" font-size="60" fill="none" stroke="#111" stroke-width="3" text-anchor="middle" opacity="0.6">COINS</text>
  <text x="256" y="244" font-family="'Book Antiqua', 'Palatino Linotype', Georgia, serif" font-weight="bold" font-size="30" fill="none" stroke="#111" stroke-width="3" text-anchor="middle" opacity="0.6">PAY &amp; CREDIT</text>
</svg>
