<svg xmlns="http://www.w3.org/2000/svg" viewBox="0 0 512 512">
  <defs>
    <linearGradient id="iron" x1="0%" y1="0%" x2="100%" y2="100%">
      <stop offset="0%" stop-color="#4a4a4a"/>
      <stop offset="100%" stop-color="#1a1a1a"/>
    </linearGradient>
    
    <radialGradient id="bloodRed" cx="50%" cy="50%" r="50%">
      <stop offset="0%" stop-color="#5a1212"/>
      <stop offset="100%" stop-color="#2a0505"/>
    </radialGradient>

    <radialGradient id="magicGlow" cx="50%" cy="50%" r="50%">
      <stop offset="0%" stop-color="#e0fbff"/>
      <stop offset="100%" stop-color="#4ea1b3" stop-opacity="0"/>
    </radialGradient>
  </defs>

  <circle cx="256" cy="256" r="240" fill="url(#iron)"/>
  
  <circle cx="256" cy="256" r="205" fill="url(#bloodRed)" stroke="#0a0a0a" stroke-width="8"/>

  <g fill="url(#magicGlow)" opacity="0.8">
    <path d="M 256,120 A 136,136 0 0,0 120,256 A 136,136 0 0,0 256,392 A 136,136 0 0,0 392,256 A 136,136 0 0,0 256,120 Z M 256,136 A 120,120 0 0,1 376,256 A 120,120 0 0,1 256,376 A 120,120 0 0,1 136,256 A 120,120 0 0,1 256,136 Z" />
    <path d="M 256,160 A 96,96 0 0,0 160,256 A 96,96 0 0,0 256,352 A 96,96 0 0,0 352,256 A 96,96 0 0,0 256,160 Z M 256,176 A 80,80 0 0,1 336,256 A 80,80 0 0,1 256,336 A 80,80 0 0,1 176,256 A 80,80 0 0,1 256,176 Z" />
    <path d="M 256,200 A 56,56 0 0,0 200,256 A 56,56 0 0,0 256,312 A 56,56 0 0,0 312,256 A 56,56 0 0,0 256,200 Z M 256,216 A 40,40 0 0,1 296,256 A 40,40 0 0,1 256,296 A 40,40 0 0,1 216,256 A 40,40 0 0,1 256,216 Z" />
    <circle cx="256" cy="256" r="12" fill="#dcd3c1" />
  </g>

  <circle cx="256" cy="75" r="14" fill="#0a0a0a"/>
  <circle cx="256" cy="437" r="14" fill="#0a0a0a"/>
  <circle cx="75" cy="256" r="14" fill="#0a0a0a"/>
  <circle cx="437" cy="256" r="14" fill="#0a0a0a"/>

  <text x="256" y="315" font-family="'Book Antiqua', 'Palatino Linotype', Georgia, serif" font-weight="bold" font-size="85" fill="#dcd3c1" text-anchor="middle">MAGIC</text>
  
  <text x="256" y="312" font-family="'Book Antiqua', 'Palatino Linotype', Georgia, serif" font-weight="bold" font-size="85" fill="none" stroke="#111" stroke-width="3" text-anchor="middle" opacity="0.6">MAGIC</text>
</svg>
