<svg xmlns="http://www.w3.org/2000/svg" viewBox="0 0 512 512">
  <defs>
    <linearGradient id="iron" x1="0%" y1="0%" x2="100%" y2="100%">
      <stop offset="0%" stop-color="#4a4a4a"/>
      <stop offset="100%" stop-color="#1a1a1a"/>
    </linearGradient>
    
    <radialGradient id="inkShadow" cx="50%" cy="50%" r="50%">
      <stop offset="0%" stop-color="#3d2b1f"/>
      <stop offset="100%" stop-color="#1a110a"/>
    </radialGradient>
  </defs>

  <circle cx="256" cy="256" r="240" fill="url(#iron)"/>
  
  <circle cx="256" cy="256" r="205" fill="url(#inkShadow)" stroke="#0a0a0a" stroke-width="8"/>

  <g fill="#dcd3c1" opacity="0.8">
    <path d="M 160,140 L 320,140 C 340,140 340,170 320,170 L 160,170 C 140,170 140,140 160,140 Z" />
    <path d="M 150,155 L 150,360 C 150,380 180,380 180,360 L 180,155 Z" />
    <path d="M 180,340 L 310,340 C 330,340 330,370 310,370 L 180,370 Z" />
    <path d="M 380,120 C 360,150 330,220 310,300 L 290,330 L 320,310 C 350,250 390,160 400,130 Z" />
  </g>

  <circle cx="256" cy="75" r="14" fill="#0a0a0a"/>
  <circle cx="256" cy="437" r="14" fill="#0a0a0a"/>
  <circle cx="75" cy="256" r="14" fill="#0a0a0a"/>
  <circle cx="437" cy="256" r="14" fill="#0a0a0a"/>

  <text x="256" y="285" font-family="'Book Antiqua', 'Palatino Linotype', Georgia, serif" font-weight="bold" font-size="100" fill="#dcd3c1" text-anchor="middle">NAME</text>
  
  <text x="256" y="282" font-family="'Book Antiqua', 'Palatino Linotype', Georgia, serif" font-weight="bold" font-size="100" fill="none" stroke="#111" stroke-width="3" text-anchor="middle" opacity="0.6">NAME</text>
</svg>
